<?xml version="1.0" encoding="UTF-8" standalone="no"?>
<!-- Created with Inkscape (http://www.inkscape.org/) -->

<svg
   xmlns:dc="http://purl.org/dc/elements/1.1/"
   xmlns:cc="http://creativecommons.org/ns#"
   xmlns:rdf="http://www.w3.org/1999/02/22-rdf-syntax-ns#"
   xmlns:svg="http://www.w3.org/2000/svg"
   xmlns="http://www.w3.org/2000/svg"
   xmlns:xlink="http://www.w3.org/1999/xlink"
   xmlns:sodipodi="http://sodipodi.sourceforge.net/DTD/sodipodi-0.dtd"
   xmlns:inkscape="http://www.inkscape.org/namespaces/inkscape"
   width="64px"
   height="64px"
   id="svg2816"
   version="1.1"
   inkscape:version="0.47 r22583"
   sodipodi:docname="sourcery.svg">
  <defs
     id="defs2818">
    <inkscape:perspective
       sodipodi:type="inkscape:persp3d"
       inkscape:vp_x="0 : 32 : 1"
       inkscape:vp_y="0 : 1000 : 0"
       inkscape:vp_z="64 : 32 : 1"
       inkscape:persp3d-origin="32 : 21.333333 : 1"
       id="perspective2824" />
    <inkscape:perspective
       id="perspective2896"
       inkscape:persp3d-origin="0.5 : 0.33333333 : 1"
       inkscape:vp_z="1 : 0.5 : 1"
       inkscape:vp_y="0 : 1000 : 0"
       inkscape:vp_x="0 : 0.5 : 1"
       sodipodi:type="inkscape:persp3d" />
    <linearGradient
       y2="633.03674"
       x2="585.07648"
       y1="586.86548"
       x1="160.35934"
       gradientTransform="matrix(0.09501877,0,0,0.0577298,-668.53444,550.97714)"
       gradientUnits="userSpaceOnUse"
       id="linearGradient2424"
       xlink:href="#linearGradient2213"
       inkscape:collect="always" />
    <linearGradient
       y2="658.74127"
       x2="477.51135"
       y1="1015.7707"
       x1="431.39035"
       gradientTransform="matrix(0.312345,0,0,0.36907,-754.843,368.468)"
       gradientUnits="userSpaceOnUse"
       id="linearGradient5544"
       xlink:href="#linearGradient2225"
       inkscape:collect="always" />
    <linearGradient
       y2="535.71051"
       x2="695.65436"
       y1="505.89154"
       x1="101.57983"
       gradientTransform="matrix(0.312345,0,0,0.254892,-754.437,443.647)"
       gradientUnits="userSpaceOnUse"
       id="linearGradient5504"
       xlink:href="#linearGradient2225"
       inkscape:collect="always" />
    <linearGradient
       y2="633.03674"
       x2="585.07648"
       y1="586.86548"
       x1="160.35934"
       gradientTransform="matrix(0.312345,0,0,0.189769,-754.437,492.383)"
       gradientUnits="userSpaceOnUse"
       id="linearGradient5501"
       xlink:href="#linearGradient2213"
       inkscape:collect="always" />
    <linearGradient
       id="linearGradient2225">
      <stop
         id="stop2227"
         offset="0"
         style="stop-color: rgb(0, 0, 121); stop-opacity: 1;" />
      <stop
         style="stop-color: rgb(0, 0, 121); stop-opacity: 1;"
         offset="1"
         id="stop2282" />
    </linearGradient>
    <linearGradient
       id="linearGradient2213">
      <stop
         id="stop2215"
         offset="0"
         style="stop-color: rgb(0, 0, 0); stop-opacity: 1;" />
      <stop
         style="stop-color: rgb(0, 0, 0); stop-opacity: 1;"
         offset="0.5"
         id="stop2223" />
      <stop
         id="stop2217"
         offset="1"
         style="stop-color: rgb(0, 0, 0); stop-opacity: 1;" />
    </linearGradient>
    <inkscape:perspective
       id="perspective3241"
       inkscape:persp3d-origin="102.80522 : 64.631912 : 1"
       inkscape:vp_z="205.61044 : 96.947868 : 1"
       inkscape:vp_y="0 : 1000 : 0"
       inkscape:vp_x="0 : 96.947868 : 1"
       sodipodi:type="inkscape:persp3d" />
  </defs>
  <sodipodi:namedview
     id="base"
     pagecolor="#ffffff"
     bordercolor="#666666"
     borderopacity="1.0"
     inkscape:pageopacity="0.0"
     inkscape:pageshadow="2"
     inkscape:zoom="6.6796417"
     inkscape:cx="31.733284"
     inkscape:cy="26.362035"
     inkscape:current-layer="g2411"
     showgrid="true"
     inkscape:document-units="px"
     inkscape:grid-bbox="true"
     inkscape:window-width="1264"
     inkscape:window-height="625"
     inkscape:window-x="0"
     inkscape:window-y="0"
     inkscape:window-maximized="1" />
  <metadata
     id="metadata2821">
    <rdf:RDF>
      <cc:Work
         rdf:about="">
        <dc:format>image/svg+xml</dc:format>
        <dc:type
           rdf:resource="http://purl.org/dc/dcmitype/StillImage" />
        <dc:title></dc:title>
      </cc:Work>
    </rdf:RDF>
  </metadata>
  <g
     id="layer1"
     inkscape:label="Layer 1"
     inkscape:groupmode="layer">
    <g
       id="g3257"
       transform="translate(-75.896134,-77.241186)">
      <g
         transform="translate(741.30132,-461.79743)"
         id="layer1-9"
         inkscape:label="Layer 1">
        <g
           id="g2411">
          <path
             style="fill:#ff0000;fill-opacity:1;fill-rule:evenodd;stroke:#000000;stroke-width:0.60842180000000001;stroke-linecap:butt;stroke-linejoin:miter;stroke-miterlimit:4;stroke-opacity:1;stroke-dasharray:none"
             d="m -651.97994,590.56657 c 0,0 10.67883,-35.49143 20.79083,-45.73815 4.2089,-4.26498 9.39651,-2.77395 10.85433,-1.68995 4.21799,3.13637 5.77121,7.65802 8.05716,11.48019 -6.69634,-1.61894 -4.44933,-4.74871 -11.82209,-4.1023 l 4.37785,40.22573 -32.25808,-0.17552 z"
             id="path2183"
             sodipodi:nodetypes="csscccc" />
          <path
             style="fill:url(#linearGradient2424);fill-opacity:1;fill-rule:evenodd;stroke:none"
             d="m -652.38321,592.38413 3.21019,-10.80825 c 4.77687,-1.7198 15.0561,-1.62534 28.4689,1.76723 l 1.30786,10.35828 -32.98695,-1.31726 z"
             id="path2185"
             sodipodi:nodetypes="ccccc" />
          <path
             id="path2187"
             style="fill:#ffcd00;fill-opacity:1;fill-rule:evenodd;stroke:#000000;stroke-width:0.3042109;stroke-linecap:butt;stroke-linejoin:miter;stroke-miterlimit:4;stroke-opacity:1;stroke-dasharray:none"
             d="m -631.52989,590.00114 0.0996,-9.35365 0.94563,-0.41145 c 3.21845,0.0548 5.83966,0.54859 7.86364,1.48122 l 1.14471,8.99705 -1.14471,0.49373 -8.90882,-1.2069 z m 2.93852,-8.15536 0.34442,5.7307 4.12174,0.6208 -0.32584,-1.88332 -3.33761,-1.53576 2.95998,-0.58599 -0.26246,-1.76929 c -1.16674,-0.53094 -2.33348,-0.63415 -3.50023,-0.57714 z"
             sodipodi:nodetypes="ccccccccccccccc" />
          <path
             style="fill:#bc9500;fill-opacity:1;fill-rule:evenodd;stroke:#000000;stroke-width:0.3042109;stroke-linecap:butt;stroke-linejoin:miter;stroke-miterlimit:4;stroke-opacity:1;stroke-dasharray:none"
             d="m -631.42525,580.67748 1.01966,-0.43506 0.19735,9.28151 -1.28279,0.48944 0.0658,-9.33589 z"
             id="path2201" />
          <path
             style="fill:#bc9500;fill-opacity:1;fill-rule:evenodd;stroke:#000000;stroke-width:0.3042109;stroke-linecap:butt;stroke-linejoin:miter;stroke-miterlimit:4;stroke-opacity:1;stroke-dasharray:none"
             d="m -628.63633,581.31019 0.0151,0.53646 c 0.97029,-0.0806 2.10459,-0.0239 3.53732,0.5448 l 0.24015,1.76981 0.84768,-0.21248 -0.37733,-1.91487 c -1.61674,-0.73549 -2.94991,-0.81389 -4.26297,-0.72372 z"
             id="path2203"
             sodipodi:nodetypes="ccccccc" />
          <path
             style="fill:#bc9500;fill-opacity:1;fill-rule:evenodd;stroke:#000000;stroke-width:0.3042109;stroke-linecap:butt;stroke-linejoin:miter;stroke-miterlimit:4;stroke-opacity:1;stroke-dasharray:none"
             d="m -627.64625,584.79007 3.17938,1.35244 0.39577,2.09885 0.84421,0.16273 -0.5699,-2.89276 -3.84946,-0.72126 z"
             id="path2205"
             sodipodi:nodetypes="cccccc" />
          <path
             style="fill:#ff0000;fill-opacity:1;fill-rule:evenodd;stroke:#000000;stroke-width:0.60842180000000001;stroke-linecap:butt;stroke-linejoin:miter;stroke-miterlimit:4;stroke-opacity:1;stroke-dasharray:none"
             d="m -652.3887,595.987 c 9.44011,0.95606 20.93267,-0.57768 35.86785,0.41694 4.10932,0.27368 9.33618,0.31444 13.39277,-2.78024 0.72368,-0.5521 1.91206,-2.1406 -1.23245,-2.64016 -0.8756,-0.31759 -0.87221,1.60639 -8.89031,0.58372 -10.40855,-1.32754 -20.86639,-4.93871 -29.83877,-5.67059 -8.9724,-0.73189 -16.53472,-0.77589 -20.13096,3.33564 -3.20225,3.66108 1.39178,5.7986 10.83187,6.75469 z"
             id="path1308"
             sodipodi:nodetypes="csscszsz" />
          <path
             style="fill:#920b0b;fill-opacity:1;fill-rule:evenodd;stroke:#000000;stroke-width:0.60842180000000001;stroke-linecap:butt;stroke-linejoin:miter;stroke-miterlimit:4;stroke-opacity:1;stroke-dasharray:none"
             d="m -652.8434,587.4736 c -2.9426,0.1033 -5.98045,0.19169 -8.75062,1.45257 -1.00618,0.42727 -1.77478,1.36155 -2.1795,2.51917 -0.60715,1.31221 -0.48906,3.07936 0.47212,4.12259 1.67928,1.91031 4.04648,2.58092 6.2427,3.22537 7.21141,1.92324 14.67136,1.34243 22.00739,1.13165 6.39868,-0.23914 12.81097,-0.1925 19.19393,0.42871 7.98783,-0.33843 10.99036,-2.05281 12.95687,-6.8608 -5.20562,1.88884 -5.86279,3.19643 -15.44005,1.32152 -7.79481,-1.96231 -15.30371,-5.42829 -23.23125,-6.63203 -3.73535,-0.47208 -7.50826,-0.76049 -11.27159,-0.70875 z"
             id="path2237"
             sodipodi:nodetypes="ccccccccccc" />
          <path
             style="fill:none;stroke:#000000;stroke-width:0.6084218;stroke-linecap:butt;stroke-linejoin:miter;stroke-miterlimit:4;stroke-opacity:1;stroke-dasharray:none"
             d="m -624.04153,550.71004 c -0.3761,-1.04191 -0.8203,-2.09744 -0.41147,-2.66194 0.53299,-0.73588 1.81509,-1.03601 1.2292,0.90456"
             id="path5447"
             sodipodi:nodetypes="csc" />
        </g>
      </g>
      <g
         transform="translate(-13.832682,-6.4624261)"
         inkscape:label="wyz"
         id="layer2">
        <path
           id="path2284"
           d="m 100.41334,250.34451 c 3.63253,-1.46778 6.60872,-4.04769 9.35867,-6.76826 4.82673,4.824 11.24566,9.52934 18.46408,7.9753 3.78757,-1.08385 11.17318,-3.40143 9.16068,-8.44589 -4.0943,-5.83993 -1.00316,-13.9765 -4.96348,-19.89828 -3.41205,-4.42527 -9.24477,-4.55614 -13.93245,-2.2928 -7.84567,2.33439 -16.34822,0.20511 -22.983444,-4.32877 -4.55825,-0.53476 -8.49814,4.5659 -10.34067,8.3289 -2.60491,6.28576 -0.04133,13.4989 -2.85952,19.67405 -2.66581,3.81534 3.73622,6.06508 6.66916,6.82993 3.79856,0.82819 7.83915,0.39729 11.426974,-1.07418 z"
           style="fill:#ffffff" />
      </g>
    </g>
  </g>
</svg>
